<svg width="29" height="28" viewBox="0 0 29 28" fill="none" xmlns="http://www.w3.org/2000/svg">
<path d="M15.3908 13.9999L19.3658 10.0324C19.507 9.89117 19.5864 9.69962 19.5864 9.4999C19.5864 9.30017 19.507 9.10862 19.3658 8.96739C19.2246 8.82617 19.033 8.74683 18.8333 8.74683C18.6336 8.74683 18.442 8.82617 18.3008 8.96739L14.3333 12.9424L10.3658 8.96739C10.2246 8.82617 10.033 8.74683 9.83331 8.74683C9.63359 8.74683 9.44204 8.82617 9.30081 8.96739C9.15959 9.10862 9.08024 9.30017 9.08024 9.4999C9.08024 9.69962 9.15959 9.89117 9.30081 10.0324L13.2758 13.9999L9.30081 17.9674C9.23052 18.0371 9.17472 18.1201 9.13664 18.2115C9.09857 18.3029 9.07896 18.4009 9.07896 18.4999C9.07896 18.5989 9.09857 18.6969 9.13664 18.7883C9.17472 18.8797 9.23052 18.9627 9.30081 19.0324C9.37054 19.1027 9.45349 19.1585 9.54488 19.1966C9.63627 19.2346 9.7343 19.2542 9.83331 19.2542C9.93232 19.2542 10.0304 19.2346 10.1217 19.1966C10.2131 19.1585 10.2961 19.1027 10.3658 19.0324L14.3333 15.0574L18.3008 19.0324C18.3705 19.1027 18.4535 19.1585 18.5449 19.1966C18.6363 19.2346 18.7343 19.2542 18.8333 19.2542C18.9323 19.2542 19.0304 19.2346 19.1217 19.1966C19.2131 19.1585 19.2961 19.1027 19.3658 19.0324C19.4361 18.9627 19.4919 18.8797 19.53 18.7883C19.5681 18.6969 19.5877 18.5989 19.5877 18.4999C19.5877 18.4009 19.5681 18.3029 19.53 18.2115C19.4919 18.1201 19.4361 18.0371 19.3658 17.9674L15.3908 13.9999Z" fill="#333333"/>
<rect x="1.08331" y="0.75" width="26.5" height="26.5" rx="13.25" stroke="#333333" stroke-width="1.5"/>
</svg>
