<svg width="28" height="28" viewBox="0 0 28 28" fill="none" xmlns="http://www.w3.org/2000/svg">
<path d="M26.1656 18.0279C26.6061 16.7233 26.8317 15.3557 26.8333 13.9787C26.8277 11.5159 26.1141 9.10668 24.7774 7.03821C23.4407 4.96974 21.5374 3.3293 19.2943 2.31243C17.0512 1.29557 14.5631 0.945181 12.1264 1.30305C9.68977 1.66091 7.40743 2.71193 5.55148 4.33081C5.50805 4.3429 5.46736 4.36325 5.43163 4.39074V4.45066C3.66294 6.02344 2.36844 8.05876 1.69389 10.3274C1.01933 12.5961 0.991518 15.008 1.61357 17.2917C1.61357 17.2917 1.61357 17.3345 1.61357 17.3602C1.61357 17.3858 1.61357 17.3602 1.61357 17.4115C2.29387 19.8578 3.68413 22.0474 5.60861 23.7037C7.53309 25.36 9.90541 26.4086 12.4257 26.717H12.4856C12.9854 26.7813 13.4885 26.8156 13.9923 26.8197C16.6724 26.8177 19.2848 25.9772 21.4632 24.4159C23.6416 22.8546 25.2769 20.6509 26.1399 18.1135L26.1656 18.0279ZM25.1212 13.9787C25.122 15.0514 24.9663 16.1184 24.6589 17.1461L24.2737 17.3174C23.4093 16.9205 22.7058 16.2412 22.279 15.3912C22.1706 15.083 22.1305 14.755 22.1615 14.4297C22.1926 14.1045 22.294 13.7899 22.4588 13.5079C22.8022 12.95 23.0193 12.3237 23.0947 11.6729C23.1701 11.0222 23.1021 10.3628 22.8954 9.74116C22.5854 9.007 22.0066 8.41902 21.2774 8.09751C20.811 7.7624 20.2404 7.60457 19.668 7.65235C18.2726 7.7294 16.6804 8.84229 15.0367 10.8797C13.8725 12.3265 12.4685 12.8401 10.9618 12.3265C10.0893 11.9843 9.34003 11.3872 8.81171 10.613C8.28338 9.83883 8.00047 8.92348 7.99984 7.98622C8.02967 6.98697 7.77111 6.00027 7.25506 5.14408C8.90357 3.89021 10.8693 3.12126 12.931 2.92374C14.9928 2.72622 17.0687 3.10797 18.9253 4.02604C20.7819 4.9441 22.3454 6.36205 23.4401 8.12035C24.5347 9.87865 25.1169 11.9075 25.1212 13.9787ZM3.59109 17.908C3.77374 17.9435 3.94803 18.0132 4.10473 18.1135C4.69641 18.5218 5.15726 19.0927 5.43163 19.7572C6.22778 21.3751 7.14377 21.9401 10.0458 20.7673C10.9019 20.4163 11.3128 20.6903 11.5354 20.93C12.2288 21.6662 12.3915 23.4554 11.9463 24.9107C10.0699 24.5582 8.31578 23.7289 6.85253 22.5025C5.38928 21.2761 4.26614 19.6939 3.59109 17.908ZM13.9923 25.1076H13.6413C14.1122 23.2756 13.9495 21.0241 12.7853 19.7657C12.3607 19.3211 11.8041 19.0252 11.198 18.9219C10.592 18.8186 9.96883 18.9134 9.42091 19.1921C7.44339 19.9797 7.36634 19.8171 6.97255 19.0209C6.57984 18.0805 5.91885 17.2766 5.07208 16.7096C4.49415 16.3162 3.80046 16.1292 3.10313 16.1788C2.95272 15.4548 2.87245 14.7181 2.86343 13.9787C2.86375 11.127 3.96467 8.3854 5.93671 6.32545C6.17741 6.8455 6.29739 7.41325 6.2877 7.98622C6.28839 9.28295 6.68119 10.5492 7.41453 11.6186C8.14787 12.6881 9.18746 13.5108 10.3968 13.9787C12.5627 14.7406 14.7456 13.9787 16.3893 11.9755C18.6236 9.18472 19.9591 9.24464 20.2502 9.48434C20.3452 9.57633 20.4591 9.64645 20.584 9.6898C20.9192 9.8311 21.1884 10.0942 21.3374 10.426C21.4356 10.8227 21.452 11.2352 21.3858 11.6384C21.3196 12.0417 21.172 12.4272 20.9521 12.7716C20.6781 13.2651 20.5133 13.8118 20.469 14.3745C20.4247 14.9373 20.5019 15.503 20.6953 16.0333C21.3559 17.4072 22.5029 18.487 23.9141 19.0637C22.9774 20.8873 21.5552 22.4166 19.8045 23.4831C18.0537 24.5496 16.0423 25.1117 13.9923 25.1076ZM18.3925 16.6667C17.9645 16.6353 17.5347 16.6954 17.1317 16.843C16.7288 16.9906 16.3619 17.2224 16.0554 17.5228C15.7967 17.6535 15.5753 17.8477 15.4121 18.0872C15.2489 18.3268 15.1492 18.6039 15.1223 18.8925C15.0453 20.1338 16.492 21.2039 16.9457 21.4607C17.0758 21.582 17.2403 21.6598 17.4166 21.6833C17.5094 21.6816 17.6016 21.6672 17.6905 21.6405C18.6674 21.3281 19.488 20.6544 19.9848 19.7572C20.1072 19.455 20.1614 19.1295 20.1437 18.804C20.1259 18.4785 20.0366 18.1609 19.8821 17.8738C19.7538 17.5646 19.5504 17.2922 19.2903 17.0814C19.0302 16.8706 18.7216 16.7281 18.3925 16.6667ZM18.3925 19.098C18.1909 19.4287 17.8919 19.6889 17.5364 19.8428C17.2616 19.6349 17.0291 19.3763 16.8516 19.0809L16.9457 19.0209C17.027 18.9806 17.1019 18.9287 17.1683 18.8668C17.4213 18.5976 17.7547 18.4174 18.1186 18.3532C18.2213 18.3532 18.3326 18.5758 18.3668 18.6443C18.4112 18.7134 18.439 18.7919 18.4479 18.8736C18.4568 18.9553 18.4467 19.038 18.4182 19.1151L18.3925 19.098Z" fill="#333333"/>
</svg>
