<svg width="29" height="28" viewBox="0 0 29 28" fill="none" xmlns="http://www.w3.org/2000/svg">
<path d="M26.2864 19.8028V23.3154C26.2877 23.6415 26.2209 23.9642 26.0902 24.263C25.9597 24.5618 25.7681 24.83 25.5277 25.0505C25.2874 25.2709 25.0038 25.4388 24.6949 25.5431C24.386 25.6476 24.0587 25.6864 23.7338 25.6571C20.1309 25.2656 16.67 24.0345 13.6293 22.0626C10.8003 20.2649 8.40174 17.8664 6.60407 15.0374C4.62527 11.9828 3.39382 8.50502 3.00949 4.88587C2.98023 4.56209 3.01871 4.23576 3.12248 3.92766C3.22625 3.61956 3.39303 3.33644 3.61222 3.09633C3.83139 2.85622 4.09817 2.66438 4.39555 2.53304C4.69294 2.40168 5.01442 2.33367 5.33953 2.33337H8.85214C9.42036 2.32777 9.97124 2.529 10.4021 2.89952C10.8329 3.27005 11.1143 3.7846 11.1939 4.34727C11.3421 5.47138 11.6171 6.57512 12.0135 7.63741C12.171 8.0565 12.2051 8.51195 12.1117 8.94982C12.0183 9.38769 11.8014 9.78961 11.4866 10.108L9.99959 11.595C11.6664 14.5263 14.0935 16.9533 17.0248 18.6202L18.5118 17.1332C18.8301 16.8183 19.2321 16.6014 19.6699 16.5081C20.1078 16.4147 20.5633 16.4488 20.9824 16.6063C22.0446 17.0026 23.1483 17.2776 24.2725 17.4259C24.8413 17.5061 25.3608 17.7927 25.7321 18.2309C26.1034 18.6691 26.3006 19.2285 26.2864 19.8028Z" stroke="#333333" stroke-width="1.5" stroke-linecap="round" stroke-linejoin="round"/>
</svg>
